<?xml version="1.0" standalone="no"?><!DOCTYPE svg PUBLIC "-//W3C//DTD SVG 1.1//EN" "http://www.w3.org/Graphics/SVG/1.1/DTD/svg11.dtd"><svg t="1561290359889" class="icon" viewBox="0 0 1024 1024" version="1.1" xmlns="http://www.w3.org/2000/svg" p-id="2099" width="28" height="28" xmlns:xlink="http://www.w3.org/1999/xlink"><defs><style type="text/css"></style></defs><path d="M900.89 137H734.22V81.44a27.78 27.78 0 1 0-55.56 0V137H345.33V81.44a27.78 27.78 0 1 0-55.56 0V137H123.11A111.22 111.22 0 0 0 12 248.11v611.11a111.22 111.22 0 0 0 111.11 111.11h777.78A111.22 111.22 0 0 0 1012 859.22V248.11A111.22 111.22 0 0 0 900.89 137z m-777.78 55.56h166.67v55.56a27.78 27.78 0 1 0 55.56 0v-55.56h333.33v55.56a27.78 27.78 0 1 0 55.56 0v-55.56h166.66a55.63 55.63 0 0 1 55.56 55.56v83.33H67.56v-83.34a55.63 55.63 0 0 1 55.55-55.55z m777.78 722.22H123.11a55.63 55.63 0 0 1-55.56-55.56V387h888.89v472.22a55.63 55.63 0 0 1-55.55 55.56z" p-id="2100" fill="#C10D0D"></path><path d="M789.78 539.78H234.22a27.78 27.78 0 1 0 0 55.56h555.56a27.78 27.78 0 1 0 0-55.56zM789.78 706.44H234.22a27.78 27.78 0 1 0 0 55.56h555.56a27.78 27.78 0 0 0 0-55.56z" p-id="2101" fill="#C10D0D"></path></svg>